<?xml version="1.0" encoding="utf-8"?>
<!-- Generator: Adobe Illustrator 16.0.0, SVG Export Plug-In . SVG Version: 6.00 Build 0)  -->
<!DOCTYPE svg PUBLIC "-//W3C//DTD SVG 1.1//EN" "http://www.w3.org/Graphics/SVG/1.1/DTD/svg11.dtd">
<svg version="1.1" id="Layer_1" xmlns="http://www.w3.org/2000/svg" xmlns:xlink="http://www.w3.org/1999/xlink" x="0px" y="0px"
	 width="187px" height="59px" viewBox="0 0 187 59" enable-background="new 0 0 187 59" xml:space="preserve">
<polygon fill="#5F259F" points="56.726,40.124 56.726,29.67 54.917,29.67 54.917,27.553 61.7,27.553 64.699,38.682 67.842,27.553 
	74.612,27.553 74.612,29.67 72.715,29.67 72.715,40.124 74.612,40.124 74.612,42.298 68.228,42.298 68.228,40.124 69.893,40.124 
	69.893,29.67 66.121,42.298 62.978,42.298 59.284,29.67 59.284,40.124 60.839,40.124 60.839,42.298 54.917,42.298 54.917,40.124 "/>
<path fill="#5F259F" d="M83.737,39.021h2.779c-0.25,1.19-0.778,2.08-1.583,2.67c-0.805,0.588-1.905,0.882-3.302,0.882
	c-1.75,0-3.108-0.484-4.075-1.451c-0.967-0.967-1.45-2.319-1.45-4.063c0-1.713,0.474-3.063,1.423-4.053
	c0.948-0.988,2.242-1.482,3.881-1.482c1.677,0,2.969,0.467,3.877,1.401c0.908,0.933,1.361,2.267,1.361,4.002
	c0,0.104-0.003,0.222-0.011,0.359c-0.007,0.136-0.018,0.328-0.032,0.578l-7.478,0.011c0,0.823,0.204,1.458,0.612,1.902
	c0.408,0.443,0.995,0.668,1.759,0.668c0.559,0,1.022-0.118,1.39-0.354C83.256,39.855,83.539,39.5,83.737,39.021 M79.15,35.957h4.543
	v-0.232c0-0.623-0.212-1.133-0.634-1.527c-0.423-0.393-0.964-0.59-1.626-0.59c-0.676,0-1.226,0.216-1.648,0.646
	C79.361,34.684,79.15,35.25,79.15,35.957"/>
<path fill="#5F259F" d="M89.698,40.202v-6.374h-1.423v-2.029h4.389v1.896c0.405-0.766,0.873-1.329,1.406-1.692
	c0.533-0.364,1.147-0.546,1.847-0.546c0.162,0,0.338,0.012,0.53,0.038c0.189,0.024,0.419,0.063,0.683,0.116v2.492
	c-0.19-0.037-0.385-0.063-0.584-0.078c-0.198-0.014-0.401-0.021-0.604-0.021c-1.127,0-1.953,0.323-2.481,0.964
	c-0.531,0.646-0.795,1.65-0.795,3.019v2.217h1.489v2.096H88.21v-2.096L89.698,40.202L89.698,40.202z"/>
<path fill="#5F259F" d="M109.211,42.298H105.1v-1.423c-0.42,0.572-0.912,0.999-1.475,1.277c-0.563,0.281-1.223,0.422-1.979,0.422
	c-1.117,0-2.017-0.313-2.701-0.934c-0.684-0.621-1.025-1.436-1.025-2.441c0-1.118,0.387-1.983,1.164-2.598
	c0.775-0.615,1.872-0.922,3.292-0.922h2.724v-0.815c0-0.396-0.187-0.722-0.558-0.976c-0.371-0.255-0.862-0.381-1.472-0.381
	c-0.574,0-1.021,0.131-1.342,0.391c-0.319,0.263-0.498,0.635-0.535,1.121l-2.776,0.011c0.087-1.229,0.497-2.119,1.229-2.675
	c0.729-0.557,1.856-0.834,3.379-0.834c1.705,0,2.943,0.297,3.718,0.883c0.771,0.589,1.157,1.529,1.157,2.824v4.974h1.312
	L109.211,42.298L109.211,42.298z M105.1,37.621c-0.244-0.021-0.478-0.038-0.701-0.049c-0.225-0.012-0.436-0.018-0.635-0.018
	c-0.91,0-1.602,0.12-2.066,0.363c-0.469,0.242-0.7,0.604-0.7,1.081c0,0.457,0.137,0.808,0.407,1.053
	c0.271,0.247,0.662,0.369,1.169,0.369c0.749,0,1.347-0.244,1.793-0.737C104.809,39.191,105.055,38.505,105.1,37.621"/>
<polygon fill="#5F259F" points="111.221,42.298 111.221,40.104 113.139,40.104 113.139,29.648 111.221,29.648 111.221,27.553 
	124.365,27.553 124.365,31.909 121.883,31.909 121.883,29.648 116.282,29.648 116.282,33.74 118.332,33.74 118.332,31.732 
	120.659,31.732 120.659,37.71 118.332,37.71 118.332,35.77 116.282,35.77 116.282,40.104 121.839,40.104 121.839,37.445 
	124.365,37.445 124.365,42.298 "/>
<polygon fill="#5F259F" points="125.672,33.828 125.672,31.799 131.504,31.799 131.504,33.828 130.018,33.828 132.223,39.904 
	134.525,33.828 133.037,33.828 133.037,31.799 138.484,31.799 138.484,33.828 137.415,33.828 133.854,42.297 130.281,42.297 
	126.852,33.828 "/>
<path fill="#5F259F" d="M147.246,39.021h2.779c-0.252,1.19-0.777,2.08-1.582,2.67c-0.807,0.588-1.907,0.882-3.305,0.882
	c-1.748,0-3.105-0.484-4.074-1.451c-0.967-0.967-1.449-2.319-1.449-4.063c0-1.713,0.475-3.063,1.424-4.053
	c0.945-0.988,2.24-1.482,3.882-1.482c1.677,0,2.968,0.467,3.876,1.401c0.907,0.933,1.361,2.267,1.361,4.002
	c0,0.104-0.004,0.222-0.012,0.359c-0.008,0.136-0.018,0.328-0.033,0.578l-7.475,0.011c0,0.823,0.2,1.458,0.61,1.902
	c0.408,0.443,0.994,0.668,1.76,0.668c0.556,0,1.021-0.118,1.39-0.354C146.766,39.855,147.047,39.5,147.246,39.021 M142.658,35.957
	h4.544v-0.232c0-0.623-0.211-1.133-0.636-1.527c-0.422-0.393-0.963-0.59-1.625-0.59c-0.676,0-1.227,0.216-1.647,0.646
	C142.87,34.684,142.658,35.25,142.658,35.957"/>
<path fill="#5F259F" d="M151.807,42.298v-2.097h1.422v-6.373h-1.422V31.8h4.323v1.663c0.478-0.668,1.017-1.158,1.614-1.471
	c0.599-0.313,1.311-0.471,2.136-0.471c1.241,0,2.155,0.326,2.743,0.978c0.59,0.651,0.884,1.667,0.884,3.049v4.653h1.401v2.097
	h-5.977v-2.097h1.598v-4.653c0-0.571-0.16-1.024-0.479-1.356c-0.319-0.33-0.756-0.494-1.306-0.494c-0.76,0-1.373,0.251-1.844,0.755
	c-0.471,0.503-0.705,1.164-0.705,1.979v3.771h1.6v2.097L151.807,42.298L151.807,42.298z"/>
<path fill="#5F259F" d="M173.107,33.871h-2.779v5.581c0,0.338,0.061,0.585,0.175,0.739c0.119,0.152,0.304,0.23,0.554,0.23
	c0.307,0,0.541-0.111,0.693-0.331c0.154-0.22,0.232-0.556,0.232-1.003v-0.286h1.828c0.017,0.177,0.027,0.313,0.033,0.406
	c0.008,0.097,0.012,0.177,0.012,0.243c0,1.008-0.28,1.779-0.844,2.316c-0.563,0.534-1.365,0.805-2.41,0.805
	c-1.125,0-1.947-0.227-2.468-0.68c-0.522-0.451-0.784-1.158-0.784-2.123V33.87h-1.676V31.8h1.676v-2.085l2.979-1.08V31.8h2.779
	V33.871L173.107,33.871z"/>
<path fill="#5F259F" d="M177.436,42.363h-2.228v-3.795h2.228c0.176,0.619,0.451,1.078,0.826,1.379
	c0.375,0.303,0.859,0.453,1.455,0.453c0.441,0,0.799-0.098,1.075-0.293c0.276-0.194,0.414-0.443,0.414-0.743
	c0-0.501-0.824-0.949-2.47-1.345c-0.147-0.037-0.254-0.063-0.321-0.08c-1.321-0.313-2.199-0.698-2.629-1.15
	c-0.431-0.452-0.646-1.139-0.646-2.057c0-0.985,0.342-1.768,1.024-2.344s1.614-0.865,2.789-0.865c0.62,0,1.157,0.108,1.621,0.33
	c0.464,0.221,0.858,0.556,1.181,1.004v-1.06h2.141v3.386h-2.141c-0.081-0.521-0.313-0.932-0.695-1.229
	c-0.379-0.299-0.867-0.446-1.455-0.446c-0.42,0-0.754,0.093-1.002,0.273c-0.25,0.185-0.377,0.425-0.377,0.72
	c0,0.551,0.877,1.014,2.627,1.389c0.221,0.045,0.393,0.082,0.519,0.109c1.035,0.221,1.784,0.582,2.245,1.082
	c0.459,0.499,0.688,1.198,0.688,2.095c0,1.021-0.344,1.839-1.025,2.453c-0.684,0.614-1.6,0.921-2.745,0.921
	c-0.714,0-1.325-0.127-1.837-0.38c-0.51-0.254-0.93-0.635-1.262-1.142V42.363z"/>
<path fill="#5F259F" d="M21.446,19.587l-0.019,0.965l-1.622,0.461c0,0-0.245-0.049-0.249-0.064l1.583-1.712L21.446,19.587z
	 M4.7,19.543c1.24-3.08,4.42-7.729,7.052-9.52c0.224-0.152,0.523-0.103,0.69,0.109c1.363,1.738,4.046,4.752,5.972,5.575
	c1.352-0.761,3.001-2.673,3.526-2.456c0.509,0.211-0.293,1.855-1.193,3.415l0.732,0.43c0.504,0.297,0.824,0.823,0.853,1.406
	l0.004,0.078c0.002,0.041,0.025,0.076,0.063,0.091l2.521,1.09c0.344,0.133,0.596,0.438,0.658,0.805
	c0.047,0.287-0.026,0.574-0.196,0.801c0.004,0.005,0.008,0.01,0.013,0.015l0.251,0.366c0.199,0.314-0.055,0.756-0.242,0.967
	c-0.187,0.212-0.584,0.58-0.598,1.479c-0.009,0.619,0.204,1.323,0.653,1.383c0.549,0.073,0.722,0.479,0.649,0.781l-0.029,0.166
	c-0.005,0.048,0.005,0.276,0.008,0.324c0.047,0.226,0.128,0.571,0.017,0.966c-0.124,0.44-0.468,0.809-0.874,0.917
	c-0.333,0.088-0.502,0.123-1.237,0.152c-1.313,0.051-1.979-0.142-2.958-0.521l-0.21-0.494c0,0,1.645,0.696,4.134,0.257
	c0.229-0.039,0.447-0.271,0.51-0.491c0.081-0.287-0.031-0.545-0.05-0.746c-0.012-0.123,0.009-0.274,0.034-0.399
	c0.03-0.143-0.072-0.247-0.279-0.263c-0.555-0.042-1.615-0.24-1.858-1.11c-0.071-0.257-0.111-0.945,0.058-1.234
	c-1.501,0.794-2.506,0.291-3.064-0.102l-0.269-0.471c0,0,0.558,0.134,1.127,0.032c0.452-0.081,0.914-0.344,1.239-0.565l0.37-0.282
	c0.019-0.015,0.037-0.029,0.057-0.042l0.535-0.408l0.927-0.683l0.46-0.354c0.209-0.166,0.153-0.498-0.099-0.586l-2.538-1.098
	c-0.285-0.123-0.475-0.396-0.49-0.706l-0.004-0.079c-0.017-0.343-0.206-0.655-0.503-0.83l-0.752-0.442
	c-1.146,1.653-3.643,4.146-3.643,4.146v0.001c-0.07,0.083-0.043,0.167-0.019,0.212l1.233,1.297c0.334,0.409,0.762,0.405,1.032,0.384
	l0.101,0.749l-1.548,0.929c0,0-1.23-0.753-1.283-0.783c-0.117-0.065-0.257-0.095-0.403-0.095c-0.347,0-0.643,0.212-0.731,0.547
	c-0.083,0.314,0.029,0.606,0.24,0.784l1.67,1.648c0.034,0.036,0.164,0.186,0.207,0.442l0.001,0.001
	c0.117,1.042-1.367,1.596-1.367,1.596l-0.499-0.25c0.106-0.568,0.428-1.597-1.618-2.537c0,0-1.319-0.574-1.676-0.706
	c0,0-2.942,2.579-3.316,2.292c-0.374-0.286,0.641-3.21,1.517-4.67c-0.982-0.951-3.695-2.55-5.248-3.035
	C4.735,20.131,4.589,19.818,4.7,19.543 M41.373,21.398l-0.815,3.527l-0.444-0.45c0,0,0.333-2.381,0.322-2.475
	c-0.018-0.154-0.075-0.294-0.158-0.412c-0.127-0.176-0.316-0.302-0.531-0.349c0,0-1.482-0.791-1.808-0.877
	c-0.327-0.086-0.576-0.067-0.879,0.145l-1.455,0.851l-0.057,0.053c-0.201,0.309-0.126,0.588-0.113,0.63l0.181,0.664
	c0,0,0.208,0.398-0.402,0.603c-0.025,0.008-0.048,0.016-0.069,0.024l-5.361,1.301c-0.789-0.172-1.775-1.916-1.858-2.947
	l17.667-18.58c0.997-0.663,3.85,1.875,6.372,5.667c2.22,3.339,3.442,6.534,3.024,7.704c0,0-0.005,0.008-0.007,0.013
	c-0.152,0.339-0.75,0.58-1.121,0.702c-0.025,0.006-0.049,0.011-0.075,0.017h-0.002l-0.178,0.058
	c-0.032,0.009-0.051,0.012-0.051,0.012l0.004,0.003L41.373,21.398z M45.916,4.947l-10.24,10.698l-0.071,0.908l10.343-8.551
	c0.962,1.551,2.477,3.524,3.791,4.886l0.872,0.273C47.352,8.364,45.916,4.947,45.916,4.947 M31.224,50.833
	c-0.186,0.743-1.077,1.072-1.077,1.072l0.274-7.199l0.674-0.043C31.096,44.663,31.41,50.091,31.224,50.833 M17.651,51.489
	c-0.189-1.57-2.164-6.578-2.639-7.824c-0.935-2.456-1.598-3.71-1.528-5.448c0.071-1.777,0.59-3.05,1.076-4.334
	c0.763-2.018,0.123-3.683,0.092-3.873c0.017-0.173,0.154-0.315,0.334-0.326c0.05-0.004,0.1,0.003,0.146,0.02l0.018,0.007
	c0.011,0.005,0.022,0.01,0.032,0.016c0,0,3.784,1.889,7.268,4.063c0.096,0.052,0.196,0.108,0.304,0.177
	c3.37,2.082,6.289,1.731,6.889,1.815l2.337,0.178c0.026-0.002,0.052,0,0.078,0c1.309,0.562,3.304,2.304,3.304,2.304l0.779,0.049
	c0,0-1.824-1.945-2.868-2.748l1.58-6.661c0.029-0.089,0.212-0.133,0.491-0.145l0.139-2.04l0.024-0.185
	c-0.982-0.922-1.42-1.937-1.42-1.937l0.509-0.088c0.346,0.591,0.826,1.143,1.523,1.63c1.684,0.059,3.996,0.733,3.996,0.733
	l-0.064,0.499c0,0-2.31-0.506-3.908-0.569l-0.132,1.976c1.746,0.128,4.343,0.754,4.305,1.146c0.006,0.105-0.784,6.051-1.333,10.475
	c-0.006,0.058-0.232,1.254-0.239,1.31c-0.069,0.294-2.037,0.987-3.959,1.338c-1.239,0.185-2.604,0.323-4.5,0.353
	c0-0.004-4.697-0.071-7.328-0.924c0.121,0.239,0.217,0.471,0.336,0.709c1.554,0.67,3.69,1.164,5.01,1.403
	c0,0,0.25,6.406,0.347,7.694c0.094,1.246,0.08,2.41-0.65,3.242c-0.831,0.949-2.496,1.481-4.195,1.015
	c-1.699-0.468-2.492-0.538-3.787-0.493c-1.673,0.057-3.284,0.48-4.687,1.189l-0.251-0.846C15.935,55.795,17.93,53.813,17.651,51.489
	"/>
<path fill="#5F259F" d="M27.43,31.049c-0.278-0.76-0.099-0.992-0.413-1.058c-0.514-0.106-0.589,0.387-0.895,0.961
	c-0.208-0.06-0.427-0.048-0.621,0.036c-1.634-0.869-3.11-1.407-3.002-0.225c0.118,1.299,1.677,3.229,2.293,3.137
	c0.432-0.064,0.756-1.021,0.993-1.35c0.284,0.086,0.559,0.033,0.774-0.15c0.472,0.111,1.035,0.517,1.329,0.41
	C28.18,32.706,27.72,31.842,27.43,31.049"/>
</svg>
